# xmcd
#
# Track frame offsets: 
#        150
#        21974
#        45872
#        67887
#        88711
#        110066
#        130428
#        154819
#        175276
#        195962
#
# Disc length: 2890 seconds
#
# Revision: 0
# Processed by: cddbd v1.5.2PL0 Copyright (c) Steve Scherf et al.
# Submitted via: ExactAudioCopy v1.0b3
#
DISCID=7d0b480a
DTITLE=Tam Doan, Phuong Diem Hanh - Do Chieu
DYEAR=2004
DGENRE=
TTITLE0=LK Kiep ngheo, Xin thoi gian qua mau
TTITLE1=Tam Doan - Do chieu
TTITLE2=Phuong Diem Hanh - Huong tinh cu
TTITLE3=Tam Doan - Tam su cho nguoi
TTITLE4=Giac ngu co don
TTITLE5=Phuong Diem Hanh - Mot minh thoi
TTITLE6=Tam Doan - Tinh yeu don phuong
TTITLE7=Ao anh
TTITLE8=Phuong Diem Hanh - Noi buon gac tro
TTITLE9=Tam Doan - Chiec bong cong vien
EXTD=
EXTT0=
EXTT1=
EXTT2=
EXTT3=
EXTT4=
EXTT5=
EXTT6=
EXTT7=
EXTT8=
EXTT9=
PLAYORDER=
